<svg width="120" height="120" viewBox="0 0 120 120" fill="none" xmlns="http://www.w3.org/2000/svg">
<rect width="120" height="120" rx="22.5" fill="white"/>
<path d="M78.7227 107H37.833V101.889H78.7227V107ZM37.833 101.889H32.7227V96.7773H37.833V101.889ZM83.833 101.889H78.7227V96.7773H83.833V101.889ZM32.7227 96.7773H27.6113V86.5557H32.7227V96.7773ZM88.9443 96.7773H83.833V86.5557H88.9443V96.7773ZM27.6113 86.5557H22.5V20.1113H27.6113V86.5557ZM94.0557 86.5557H88.9443V66.1113H94.0557V86.5557ZM73.6113 81.4443H53.167V76.333H73.6113V81.4443ZM53.167 76.333H48.0557V71.2227H42.9443V66.1113H53.167V76.333ZM42.9443 40.5557H53.167V45.667H42.9443V66.1113H37.833V20.1113H42.9443V40.5557ZM73.6113 61H83.833V20.1113H88.9443V66.1113H53.167V45.667H58.2773V61H68.5V45.667H58.2773V40.5557H68.5V20.1113H73.6113V61ZM37.833 20.1113H27.6113V15H37.833V20.1113ZM83.833 20.1113H73.6113V15H83.833V20.1113Z" fill="black"/>
</svg>
